<svg width="64" height="64" viewBox="0 0 64 64" fill="none" xmlns="http://www.w3.org/2000/svg">
<path d="M33.3845 44.8939C30.0608 43.7291 26.6176 43.5862 25.6 40.5334V36.2667C26.56 35.791 29.3035 32.5227 29.5936 29.9691C29.7643 29.3654 29.8965 27.2064 29.8965 26.72C29.8965 24.0555 29.856 18.5472 31.5243 14.2358C30.9419 11.3387 29.4208 8.89816 26.1589 8.57602C25.2864 7.13176 23.0507 6.40002 20.1429 6.40002C8.51413 6.60056 7.32587 14.6624 9.65973 23.9232C9.20747 24.1835 8.4608 25.0112 8.64853 26.479C8.9984 29.216 10.1845 29.9094 10.9397 29.967C11.2277 32.5227 13.9733 35.791 14.9333 36.2667V40.5334C12.8 46.9334 0 40.5334 0 57.6H25.6C25.6 50.031 29.8453 46.7691 33.3845 44.8939Z" fill="#4CAF50"/>
<path d="M29.8667 57.6C29.8667 46.9333 40.5334 49.0667 42.6667 43.2917V40.5717C34.9419 40.5717 32.7979 37.3909 32.7979 37.3909C36.8342 34.0331 29.2011 10.6667 42.944 10.6667C42.944 10.6667 44.8 8.53333 47.1979 8.53333C64 8.53333 56.4182 33.9051 60.7638 37.472C60.7638 37.472 58.9632 40.544 51.2 40.544V43.2917C53.3334 49.0667 64 46.9333 64 57.6H29.8667Z" fill="#4CAF50"/>
</svg>
