<svg width="64" height="64" viewBox="0 0 64 64" fill="none" xmlns="http://www.w3.org/2000/svg">
<path fill-rule="evenodd" clip-rule="evenodd" d="M52.8689 29.2174H48.695V18.087C48.695 15.0261 46.1906 12.5218 43.1298 12.5218H31.9993V8.34788C31.9993 4.45223 28.9385 1.39136 25.0428 1.39136C21.1471 1.39136 18.0863 4.45223 18.0863 8.34788V12.5218H6.95584C3.89497 12.5218 1.39062 15.0261 1.39062 18.087V28.6609H5.56454C9.73845 28.6609 13.0776 32.0001 13.0776 36.174C13.0776 40.3479 9.73845 43.687 5.56454 43.687H1.39062V54.2609C1.39062 57.3218 3.89497 59.8261 6.95584 59.8261H17.5298V55.6522C17.5298 51.4783 20.8689 48.1392 25.0428 48.1392C29.2167 48.1392 32.5558 51.4783 32.5558 55.6522V59.8261H43.1298C46.1906 59.8261 48.695 57.3218 48.695 54.2609V43.1305H52.8689C56.7645 43.1305 59.8254 40.0696 59.8254 36.174C59.8254 32.2783 56.7645 29.2174 52.8689 29.2174Z" fill="#4CAF50"/>
</svg>
