<svg width="61" height="64" viewBox="0 0 61 64" fill="none" xmlns="http://www.w3.org/2000/svg">
<g clip-path="url(#clip0)">
<path d="M59.8803 16.1389C59.4591 15.6154 58.8557 15.3162 58.2234 15.3162H46.4955V21.8803C46.4955 24.8965 44.0416 27.3504 41.0254 27.3504C38.0092 27.3504 35.5554 24.8965 35.5554 21.8803V15.3162H24.6152V21.8803C24.6152 24.8965 22.1613 27.3504 19.1451 27.3504C16.1289 27.3504 13.675 24.8965 13.675 21.8803V15.3162H1.9477C1.31481 15.3162 0.711457 15.6154 0.290261 16.1389C-0.131483 16.6624 -0.331141 17.3604 -0.258936 18.0573L3.67679 56.2215C3.75009 60.5243 6.93204 64 10.8333 64H49.3378C53.2385 64 56.4204 60.5243 56.4943 56.221L60.43 18.0567C60.5017 17.3604 60.302 16.6624 59.8803 16.1389Z" fill="#4CAF50"/>
<path d="M19.1451 24.0684C20.3518 24.0684 21.3331 23.087 21.3331 21.8803V9.84615C21.3331 6.46728 24.7404 4.37607 27.8972 4.37607H33.3673C36.6898 4.37607 38.8374 6.52308 38.8374 9.84615V21.8803C38.8374 23.087 39.8193 24.0684 41.0254 24.0684C42.2316 24.0684 43.2134 23.087 43.2134 21.8803V9.84615C43.2134 4.14085 39.0726 0 33.3673 0H27.8972C21.8648 0 16.957 4.41709 16.957 9.84615V21.8803C16.957 23.087 17.9384 24.0684 19.1451 24.0684Z" fill="#4CAF50"/>
</g>
<defs>
<clipPath id="clip0">
<rect width="60.7179" height="64" fill="white"/>
</clipPath>
</defs>
</svg>
