<svg width="32" height="32" viewBox="0 0 32 32" fill="none" xmlns="http://www.w3.org/2000/svg">
<circle cx="16" cy="16" r="16" fill="#667177"/>
<path d="M22.9199 13.0536C22.9199 13.2917 22.8365 13.4941 22.6699 13.6607L16.2056 20.125L14.9913 21.3393C14.8246 21.506 14.6222 21.5893 14.3841 21.5893C14.146 21.5893 13.9437 21.506 13.777 21.3393L12.5627 20.125L9.33057 16.8929C9.1639 16.7262 9.08057 16.5238 9.08057 16.2857C9.08057 16.0476 9.1639 15.8452 9.33057 15.6786L10.5449 14.4643C10.7115 14.2976 10.9139 14.2143 11.152 14.2143C11.3901 14.2143 11.5925 14.2976 11.7591 14.4643L14.3841 17.0982L20.2413 11.2321C20.408 11.0655 20.6103 10.9821 20.8484 10.9821C21.0865 10.9821 21.2889 11.0655 21.4556 11.2321L22.6699 12.4464C22.8365 12.6131 22.9199 12.8155 22.9199 13.0536Z" fill="white"/>
</svg>
