<svg width="32" height="32" viewBox="0 0 32 32" fill="none" xmlns="http://www.w3.org/2000/svg">
<path d="M25.9999 4.695V12.5L2.10986 9C2.18692 8.79483 2.30919 8.60964 2.46759 8.45816C2.62598 8.30669 2.81645 8.19282 3.02486 8.125L21.1249 1.21H21.1699C21.5987 1.06745 22.048 0.996503 22.4999 1V1C22.9484 0.999395 23.3927 1.08743 23.8071 1.25904C24.2216 1.43065 24.598 1.68246 24.9149 2C25.2654 2.3548 25.5419 2.77579 25.7282 3.23848C25.9144 3.70116 26.0068 4.19628 25.9999 4.695V4.695Z" fill="#313F5A"/>
<path d="M27 9H12.5C12.45 9 12.4 9 12.35 9H2.11C2.08868 9.05566 2.07032 9.1124 2.055 9.17C2.01898 9.27631 2.0004 9.38775 2 9.5V26.5C2 27.2956 2.31607 28.0587 2.87868 28.6213C3.44129 29.1839 4.20435 29.5 5 29.5H27C27.7956 29.5 28.5587 29.1839 29.1213 28.6213C29.6839 28.0587 30 27.2956 30 26.5V12C30 11.2044 29.6839 10.4413 29.1213 9.87868C28.5587 9.31607 27.7956 9 27 9Z" fill="#4CAF50"/>
<path d="M30 15V24H22C21.4696 24 20.9609 23.7893 20.5858 23.4142C20.2107 23.0391 20 22.5304 20 22V17C20 16.4696 20.2107 15.9609 20.5858 15.5858C20.9609 15.2107 21.4696 15 22 15H30Z" fill="#4CAF50"/>
<path d="M24 21C24.8284 21 25.5 20.3284 25.5 19.5C25.5 18.6716 24.8284 18 24 18C23.1716 18 22.5 18.6716 22.5 19.5C22.5 20.3284 23.1716 21 24 21Z" fill="white"/>
</svg>
